<?xml version="1.0" encoding="iso-8859-1"?>
<!-- Generator: Adobe Illustrator 19.0.0, SVG Export Plug-In . SVG Version: 6.00 Build 0)  -->
<svg version="1.1" id="Capa_1" xmlns="http://www.w3.org/2000/svg" xmlns:xlink="http://www.w3.org/1999/xlink" x="0px" y="0px"
	 viewBox="0 0 512 512" style="enable-background:new 0 0 512 512;" xml:space="preserve">
<linearGradient id="SVGID_1_" gradientUnits="userSpaceOnUse" x1="0" y1="258" x2="512" y2="258" gradientTransform="matrix(1 0 0 -1 0 514)">
	<stop  offset="0" style="stop-color:#80D8FF"/>
	<stop  offset="1" style="stop-color:#EA80FC"/>
</linearGradient>
<path style="fill:url(#SVGID_1_);" d="M492,0H20C8.954,0,0,8.954,0,20v472c0,11.046,8.954,20,20,20h472c11.046,0,20-8.954,20-20V20
	C512,8.954,503.046,0,492,0z M197.333,314.667V197.333h117.333v117.333H197.333V314.667z M314.667,354.667V472H197.333V354.667
	H314.667z M40,197.333h117.333v117.333H40V197.333z M197.333,157.333V40h117.333v117.333L197.333,157.333L197.333,157.333z
	 M354.667,197.333H472v117.333H354.667V197.333z M472,157.333H354.667V40H472V157.333z M157.333,40v117.333H40V40H157.333z
	 M40,354.667h117.333V472H40V354.667z M354.667,472V354.667H472V472H354.667z"/>
<g>
</g>
<g>
</g>
<g>
</g>
<g>
</g>
<g>
</g>
<g>
</g>
<g>
</g>
<g>
</g>
<g>
</g>
<g>
</g>
<g>
</g>
<g>
</g>
<g>
</g>
<g>
</g>
<g>
</g>
</svg>
